<svg xmlns="http://www.w3.org/2000/svg" width="560" height="560" viewBox="0 0 560 560">
  <g>
    <path d="M259.800145,559.3437 C259.600145,559.1437 256.100145,558.7437 252.000145,558.4437 C205.000145,554.3437 155.400145,535.4437 115.500145,506.3437 C69.2001455,472.6437 35.0001455,426.7437 15.7001455,372.3437 C12.1001455,362.1437 7.60014548,346.2437 6.50014548,339.8437 C6.20014548,337.9437 5.40014548,334.3437 4.90014548,331.8437 C4.30014548,329.3437 3.60014548,325.5437 3.40014548,323.3437 C3.10014548,321.1437 2.70014548,318.2437 2.40014548,316.8437 C0.500145477,305.6437 -0.199854522,267.3437 1.30014548,252.8437 C6.60014548,200.3437 26.3001455,150.4437 58.0001455,109.2437 C96.5001455,59.2436995 153.500145,22.0436995 213.000145,8.04369951 C215.500145,7.44369951 218.900145,6.64369951 220.500145,6.24369951 C222.200145,5.84369951 224.400145,5.34369951 225.500145,5.14369951 C226.600145,4.94369951 229.800145,4.44369951 232.500145,3.84369951 C235.300145,3.34369951 239.900145,2.64369951 242.900145,2.34369951 C245.900145,1.94369951 249.200145,1.44369951 250.400145,1.14369951 C254.300145,0.243699514 295.500145,0.0436995143 303.500145,0.843699514 C321.300145,2.74369951 322.900145,2.94369951 335.000145,5.34369951 C339.100145,6.24369951 343.400145,7.04369951 344.500145,7.24369951 C357.200145,9.64369951 386.900145,20.4436995 402.900145,28.3436995 C415.200145,34.4436995 435.100145,46.0436995 436.800145,48.1436995 C437.800145,49.3436995 436.900145,50.1436995 431.500145,52.8436995 C419.500145,58.9436995 409.400145,70.9436995 404.800145,84.4436995 C403.600145,88.2436995 402.400145,91.5436995 402.300145,91.7436995 C402.200145,91.9436995 399.800145,90.6436995 397.000145,88.9436995 C377.600145,76.9436995 353.500145,66.9436995 333.000145,62.2436995 C311.600145,57.4436995 302.700145,56.3436995 281.000145,56.3436995 C265.900145,56.3436995 255.200145,56.9436995 246.000145,58.3436995 C214.000145,63.3436995 181.700145,75.9436995 155.500145,93.7436995 C99.6001455,131.7437 63.9001455,190.9437 57.3001455,256.8437 C55.8001455,271.1437 56.5001455,301.2437 58.5001455,312.8437 C60.4001455,324.1437 61.4001455,328.7437 64.0001455,338.7437 C69.6001455,359.8437 80.3001455,383.7437 92.7001455,402.5437 C95.8001455,407.3437 99.0001455,412.0437 99.6001455,412.8437 C125.500145,445.4437 151.200145,466.5437 183.600145,481.8437 C197.000145,488.1437 197.200145,488.2437 204.200145,490.7437 C215.900145,494.9437 234.500145,499.5437 246.700145,501.3437 C249.000145,501.6437 252.400145,502.1437 254.200145,502.4437 C259.900145,503.3437 295.200145,503.6437 301.500145,502.8437 C304.800145,502.3437 309.800145,501.7437 312.500145,501.3437 C326.800145,499.5437 345.600145,494.6437 361.000145,488.6437 C372.500145,484.1437 391.300145,475.0437 391.800145,473.6437 C392.000145,473.2437 392.600145,472.8437 393.200145,472.8437 C394.400145,472.8437 406.700145,464.6437 417.000145,457.0437 C427.500145,449.3437 450.200145,426.2437 458.800145,414.6437 C468.200145,401.9437 476.200145,388.7437 482.000145,376.3437 C486.600145,366.5437 488.000145,363.3437 488.600145,361.3437 C488.800145,360.8437 490.100145,357.2437 491.500145,353.4437 C494.100145,346.5437 498.600145,330.3437 499.500145,324.4437 C499.800145,322.7437 500.300145,320.2437 500.500145,318.8437 C500.800145,317.4437 501.200145,315.3437 501.500145,314.1437 C504.100145,300.0437 504.100145,262.7437 501.500145,245.8437 C499.100145,231.0437 492.200145,206.0437 487.300145,194.8437 C482.800145,184.4437 477.300145,173.4437 472.900145,166.1437 C470.200145,161.6437 468.000145,157.7437 468.000145,157.5437 C468.000145,157.2437 470.100145,156.5437 472.800145,155.8437 C486.100145,152.5437 500.600145,140.8437 506.900145,128.5437 C508.800145,124.8437 510.600145,121.8437 510.900145,121.8437 C512.100145,121.9437 523.600145,141.5437 530.600145,155.3437 C543.700145,181.2437 553.400145,212.3437 557.000145,239.8437 C557.600145,244.5437 558.400145,249.7437 558.600145,251.3437 C559.600145,256.8437 559.800145,297.2437 558.900145,304.8437 C557.300145,319.3437 557.000145,321.6437 555.500145,329.4437 C554.600145,333.7437 553.700145,338.8437 553.400145,340.7437 C551.000145,355.0437 541.600145,381.7437 531.500145,402.4437 C522.600145,420.7437 517.400145,429.3437 504.700145,446.6437 C497.700145,456.2437 495.700145,458.7437 488.000145,467.2437 C471.500145,485.4437 450.700145,503.0437 430.200145,516.2437 C426.200145,518.7437 422.700145,520.8437 422.300145,520.8437 C422.000145,520.8437 420.900145,521.4437 420.100145,522.2437 C417.600145,524.4437 395.400145,535.2437 384.500145,539.6437 C375.300145,543.3437 354.200145,550.3437 349.500145,551.2437 C348.400145,551.5437 343.500145,552.5437 338.500145,553.6437 C333.600145,554.8437 327.500145,555.9437 325.000145,556.3437 C322.500145,556.6437 318.800145,557.1437 316.800145,557.4437 C314.800145,557.7437 311.200145,558.2437 308.800145,558.5437 C304.000145,559.0437 260.300145,559.8437 259.800145,559.3437 Z" transform="matrix(1 0 0 -1 0 559.845)"/>
    <path d="M446.500145,483.3487 C433.200145,476.9487 427.300145,463.5487 431.500145,449.1487 C433.700145,441.5487 441.200145,433.8487 448.800145,431.4487 C462.400145,427.0487 477.500145,433.6487 483.300145,446.5487 C486.400145,453.4487 486.200145,463.6487 482.800145,470.1487 C477.700145,480.0487 469.300145,485.2487 458.200145,485.5487 C453.000145,485.6487 450.400145,485.1487 446.500145,483.3487 Z" transform="matrix(1 0 0 -1 0 915.65)"/>
  </g>
</svg>