<svg xmlns="http://www.w3.org/2000/svg" width="200" height="200" viewBox="0 0 200 200">
  <g fill-rule="evenodd">
    <path d="m100 0c55.228475 0 100 44.771525 100 100 0 21.081273-6.523332 40.63894-17.661548 56.764555-2.391394-6.683401-8.23595-11.722572-15.383505-12.967237 8.248696-12.581081 13.045053-27.629075 13.045053-43.797318 0-44.18278-35.81722-80-80-80s-80 35.81722-80 80 35.81722 80 80 80c16.168243 0 31.216237-4.796357 43.798748-13.043835 1.243235 7.146337 6.282406 12.990893 12.964515 15.380883-16.124323 11.13962-35.68199 17.662952-56.763263 17.662952-55.228475 0-100-44.771525-100-100s44.771525-100 100-100z" />
    <circle cx="163.5" cy="163.5" opacity=".299714" r="10" />
  </g>
</svg>